<?xml version="1.0" encoding="utf-8"?>
<!-- Generator: Adobe Illustrator 26.0.0, SVG Export Plug-In . SVG Version: 6.00 Build 0)  -->
<svg version="1.1" id="Layer_1" xmlns="http://www.w3.org/2000/svg" xmlns:xlink="http://www.w3.org/1999/xlink" x="0px" y="0px"
	viewBox="0 0 1366 768" style="enable-background:new 0 0 1366 768;" xml:space="preserve">
<style type="text/css">
	.st0{fill:#736357;stroke:#FFFFFF;stroke-width:2;stroke-miterlimit:10;}
	.st1{fill:#3E0E12;stroke:#FFFFFF;stroke-width:2;stroke-miterlimit:10;}
</style>
<g>
	<path class="st0" d="M896.8,218c-1.13,0-2.18,0.67-2.76,1.76l-0.23,0.42l-22.46,42.21l-3.31,6.2l-8.59,16.15l-11.73,22.03l0,0.01
		c-2.32,4.34-8.54,4.34-10.85-0.01l0,0l-20.33-38.2l-2.88-5.39l-0.42-0.79l-22.46-42.19l-0.23-0.43c-0.58-1.1-1.63-1.77-2.77-1.77
		H639.21c-1.13,0-2.17,0.66-2.76,1.75l-0.22,0.42l-5.66,10.66l-16.8,31.56l-3.29,6.18l-19.39,36.44c-0.58,1.1-1.63,1.77-2.77,1.77
		H588c-1.78,0-3.23-1.63-3.23-3.63v-81.51c0-2.01-1.44-3.63-3.23-3.63h-39.32c-1.78,0-3.23,1.63-3.23,3.63v303.47
		c0,2.01,1.44,3.63,3.23,3.63h39.32c1.78,0,3.23-1.63,3.23-3.63v-14.45l-0.05-0.1v-0.02l0.05-0.1V399.19c0-2.01,1.44-3.63,3.23-3.63
		h39.34c1.78,0,3.23,1.63,3.23,3.63v125.92c0,2.01,1.44,3.63,3.23,3.63h130.87c1.78,0,3.23-1.63,3.23-3.63V287.09
		c0-3.69,4.31-5.03,5.99-1.87l11.48,21.56l5.42,10.19l18.19,34.2l4.69,8.79l2.88,5.41l16.07,30.2l4.26,8
		c2.31,4.35,8.54,4.35,10.85,0l4.26-8l7.48-14.04l8.59-16.15l7.56-14.19l18.21-34.2l5.42-10.19l0,0c1.68-3.16,5.99-1.82,5.99,1.87
		v216.46c0,2.01,1.44,3.63,3.23,3.63h39.32c1.78,0,3.23-1.63,3.23-3.63V221.63c0-2.01-1.44-3.63-3.23-3.63H896.8z M718.89,484.35
		h-39.32c-1.78,0-3.23-1.63-3.23-3.63V354.8c0-2.01-1.44-3.63-3.23-3.63h-49.39c-2.51,0-4.06-3.08-2.77-5.5l9.61-18.05l5.66-10.65
		l5.42-10.19l20.35-38.2v-0.02l2.34-4.4c0.58-1.1,1.63-1.77,2.77-1.77h51.78c1.78,0,3.23,1.63,3.23,3.63v214.69
		C722.11,482.72,720.67,484.35,718.89,484.35z"/>
</g>
<g>
	<path class="st1" d="M888.8,209c-1.13,0-2.18,0.67-2.76,1.76l-0.23,0.42l-22.46,42.21l-3.31,6.2l-8.59,16.15l-11.73,22.03l0,0.01
		c-2.32,4.34-8.54,4.34-10.85-0.01l0,0l-20.33-38.2l-2.88-5.39l-0.42-0.79l-22.46-42.19l-0.23-0.43c-0.58-1.1-1.63-1.77-2.77-1.77
		H631.21c-1.13,0-2.17,0.66-2.76,1.75l-0.22,0.42l-5.66,10.66l-16.8,31.56l-3.29,6.18l-19.39,36.44c-0.58,1.1-1.63,1.77-2.77,1.77
		H580c-1.78,0-3.23-1.63-3.23-3.63v-81.51c0-2.01-1.44-3.63-3.23-3.63h-39.32c-1.78,0-3.23,1.63-3.23,3.63v303.47
		c0,2.01,1.44,3.63,3.23,3.63h39.32c1.78,0,3.23-1.63,3.23-3.63v-14.45l-0.05-0.1v-0.02l0.05-0.1V390.19c0-2.01,1.44-3.63,3.23-3.63
		h39.34c1.78,0,3.23,1.63,3.23,3.63v125.92c0,2.01,1.44,3.63,3.23,3.63h130.87c1.78,0,3.23-1.63,3.23-3.63V278.09
		c0-3.69,4.31-5.03,5.99-1.87l11.48,21.56l5.42,10.19l18.19,34.2l4.69,8.79l2.88,5.41l16.07,30.2l4.26,8
		c2.31,4.35,8.54,4.35,10.85,0l4.26-8l7.48-14.04l8.59-16.15l7.56-14.19l18.21-34.2l5.42-10.19l0,0c1.68-3.16,5.99-1.82,5.99,1.87
		v216.46c0,2.01,1.44,3.63,3.23,3.63h39.32c1.78,0,3.23-1.63,3.23-3.63V212.63c0-2.01-1.44-3.63-3.23-3.63H888.8z M710.89,475.35
		h-39.32c-1.78,0-3.23-1.63-3.23-3.63V345.8c0-2.01-1.44-3.63-3.23-3.63h-49.39c-2.51,0-4.06-3.08-2.77-5.5l9.61-18.05l5.66-10.65
		l5.42-10.19l20.35-38.2v-0.02l2.34-4.4c0.58-1.1,1.63-1.77,2.77-1.77h51.78c1.78,0,3.23,1.63,3.23,3.63v214.69
		C714.11,473.72,712.67,475.35,710.89,475.35z"/>
</g>
</svg>
